<?xml version="1.0" standalone="no"?><svg xmlns="http://www.w3.org/2000/svg"><metadata>Created by youziku.com at Sat, 12 Dec 2015 22:37:38 GMT</metadata><defs><font id="CaiYunHanMaoBi-Xing" horiz-adv-x="1000" ><font-face font-family="CaiYunHanMaoBi-Xing" font-weight="400" font-stretch="normal" font-style="normal" units-per-em="1000" panose-1="2 1 6 0 3 1 1 1 1 1" ascent="860" descent="-140" bbox="-164 -289 1016 859.722" underline-thickness="40" underline-position="-60" unicode-range="U+000D-FFE5"  /><missing-glyph /><glyph glyph-name="" unicode="" /><glyph glyph-name="space" unicode=" "  horiz-adv-x="500" /><glyph glyph-name="hyphen" unicode="-" d="M125 223c19 62 121 86 219 62c18 7 26 0 43 0c18 0 27 -3 27 -8c-46 -68 -157 -70 -277 -64c-8 0 -12 5 -12 10z" horiz-adv-x="507" /><glyph glyph-name="period" unicode="." d="M55 23c0 23 43 96 70 90c13 0 20 -9 20 -27c0 -23 -46 -90 -71 -90c-13 0 -19 9 -19 27z" horiz-adv-x="332" /><glyph glyph-name="zero" unicode="0" d="M137 0c-81 1 -136 87 -133 176c4 146 118 297 211 365c62 45 113 68 156 68c37 0 56 -14 59 -43c29 -15 43 -48 43 -101c0 -156 -103 -320 -194 -397c-53 -45 -101 -68 -142 -68zM336 508c-69 -31 -132 -86 -186 -166c-54 -79 -80 -146 -80 -201c0 -39 13 -59 39 -59
c34 0 78 23 131 68c83 70 186 191 186 319c0 31 -12 47 -35 47c-21 0 -46 -14 -75 -43z" horiz-adv-x="437" /><glyph glyph-name="one" unicode="1" d="M117 4c-28 2 -91 40 -86 82c18 138 114 329 184 441c-35 -12 -74 -31 -117 -58v39c63 56 122 98 175 125c27 -44 39 -68 20 -120c-39 -105 -163 -331 -176 -451c2 -13 7 -33 8 -46c0 -8 -3 -12 -8 -12z" horiz-adv-x="269" /><glyph glyph-name="five" unicode="5" d="M285 305c-44 0 -128 -32 -164 -32c-19 0 -34 27 -47 82c21 73 77 152 168 235c67 -5 192 -5 254 0c-29 -63 -51 -99 -66 -110c-35 -7 -149 -1 -203 -3c-37 -29 -67 -67 -90 -114c62 21 107 32 136 32c83 0 125 -44 125 -133c0 -160 -186 -278 -351 -278
c-57 0 -86 24 -86 71c0 73 61 97 148 97c0 -3 -2 -5 -7 -7c-42 -17 -63 -29 -63 -36c0 -11 13 -15 39 -15c102 0 296 117 281 168c0 29 -25 43 -74 43z" horiz-adv-x="425" /><glyph glyph-name="seven" unicode="7" d="M125 469c-13 -10 -28 -7 -31 8c6 23 39 71 54 93c28 41 36 32 107 41c78 10 166 8 241 -2c16 -48 35 -89 0 -117c-90 -73 -161 -158 -221 -245c-53 -78 -77 -136 -76 -173c1 -25 31 1 39 -15c-57 -47 -100 -70 -129 -71c-26 0 -39 17 -39 51c0 43 30 110 92 201
c61 90 147 177 256 260c-105 21 -230 18 -293 -31z" horiz-adv-x="433" /><glyph glyph-name="nine" unicode="9" d="M145 12c0 24 38 101 70 90c65 92 121 176 168 253c-103 -83 -172 -125 -207 -125c-40 1 -102 104 -102 157c0 37 21 75 57 119c52 63 184 148 275 158c35 4 96 -57 94 -86c8 -19 -86 -98 -102 -94c-19 5 48 45 43 67c-15 10 -30 -3 -74 -20c-67 -25 -146 -86 -183 -144
c-16 -25 -24 -46 -24 -63c0 -15 9 -23 28 -23c49 0 149 63 179 94c53 55 58 70 110 85c18 0 27 -8 27 -23c0 -3 -39 -67 -116 -192s-129 -201 -158 -230c-28 -29 -51 -43 -70 -43c-11 0 -15 7 -15 20z" horiz-adv-x="457" /><glyph glyph-name="at" unicode="@" d="M836 -10c-77 -57 -220 -82 -234 33c-41 -52 -90 -78 -149 -78c-105 -1 -179 107 -176 219c1 51 14 101 35 152c67 161 264 221 364 71l15 74h90c-26 -132 -82 -265 -82 -402c0 -24 12 -36 35 -36c21 0 47 13 78 39c73 62 110 139 110 231c0 194 -165 318 -356 312
c-248 -8 -406 -183 -406 -429c0 -235 181 -367 434 -367c145 0 276 56 332 144h90c-83 -146 -226 -219 -430 -219c-286 0 -500 160 -500 430c0 85 19 169 58 250c83 175 226 263 430 262c234 -1 425 -163 418 -375c-5 -132 -75 -252 -156 -311zM473 16c98 0 178 146 175 246
c-2 93 -38 140 -113 140c-96 1 -168 -141 -168 -246c0 -93 35 -140 106 -140z" horiz-adv-x="1007" /><glyph glyph-name="A" unicode="A" d="M238 199c-135 -134 -155 -157 -253 -242c-14 -12 -43 -13 -44 8c0 30 103 172 149 140l90 98c-33 2 -60 3 -82 8c-40 28 45 98 68 109c17 8 49 12 96 12c-47 -5 -70 -16 -71 -31h86c165 164 256 240 442 344c19 -26 20 -56 4 -83l-137 -246c47 -2 65 1 82 -6
c2 -15 -22 -37 -70 -99l-75 -8c-37 -70 -54 -110 -54 -121c0 -13 6 -20 19 -20c9 0 37 14 86 43l-4 -27c-40 -26 -115 -97 -160 -98c-50 -2 -57 64 -31 106c22 35 42 77 59 113h-200zM504 316l152 250c-93 -57 -195 -141 -308 -254z" horiz-adv-x="632" /><glyph glyph-name="C" unicode="C" d="M461 371c17 -9 -18 -29 -4 -35c53 43 152 146 152 230c0 17 -8 28 -23 28c-29 0 -78 -31 -149 -94c-70 -63 -132 -137 -187 -223c-54 -85 -82 -156 -82 -215c0 -83 35 -124 105 -124c90 0 209 73 356 218v-31c-88 -98 -165 -169 -231 -212c-65 -43 -125 -65 -179 -65
c-104 -1 -168 70 -168 175c0 120 69 255 208 406c70 76 135 133 196 170c57 35 106 53 147 53c52 0 78 -31 78 -93c0 -44 -17 -94 -51 -149s-80 -110 -139 -166s-101 -84 -127 -84s-39 13 -39 39c0 25 20 60 62 105s67 67 75 67z" horiz-adv-x="601" /><glyph glyph-name="D" unicode="D" d="M94 -20c-54 0 -59 9 -59 55c0 118 55 162 117 264c44 73 96 145 145 213c-43 -1 -228 -59 -246 -82c0 -3 3 -5 8 -4c29 4 62 9 101 12c-40 -11 -84 -28 -133 -51c-23 -10 -48 -2 -47 27c5 106 30 118 124 160c105 46 198 67 275 67c152 0 261 -87 254 -235
c-12 -255 -286 -426 -539 -426zM312 516c4 -26 8 -40 -7 -63c-60 -90 -98 -155 -149 -241c-37 -62 -54 -101 -54 -114c0 -15 18 -24 54 -24c142 0 295 79 361 160c39 48 61 95 61 145c0 91 -68 137 -203 137h-63z" horiz-adv-x="644" /><glyph glyph-name="F" unicode="F" d="M51 371c-25 -21 -51 -12 -51 16c0 15 10 46 33 89c56 106 126 91 272 123c77 17 149 22 215 22c65 0 102 -21 97 -62c-10 -87 -113 -238 -160 -317h74l-66 -94h-74c-69 -87 -137 -158 -204 -214c-68 -57 -113 -86 -136 -86c-16 0 -24 8 -24 23c24 63 101 146 172 141
c34 34 73 77 117 129l-148 -4c-29 -5 -43 0 -43 15c17 30 12 57 55 59c66 17 131 38 215 31c85 119 128 197 128 235c0 18 -14 27 -43 27c-65 1 -382 -48 -402 -90c32 4 86 9 98 -4c-30 -17 -88 -26 -125 -39z" horiz-adv-x="562" /><glyph glyph-name="I" unicode="I" d="M27 355c43 140 173 297 336 297c50 0 75 -34 75 -101c0 -42 -17 -105 -53 -190c-35 -83 -86 -174 -151 -275c5 -15 5 -20 -4 -35l-35 -59c-13 -30 -35 11 -50 16c-16 18 -5 21 15 54c74 123 131 224 168 307s55 136 55 158c0 23 -9 35 -28 35
c-90 -21 -215 -114 -230 -210c0 -5 4 -8 12 -8c9 -3 25 12 47 15c19 -8 -75 -84 -90 -78c-19 -4 -73 54 -67 74z" horiz-adv-x="437" /><glyph glyph-name="P" unicode="P" d="M656 445c0 -215 -229 -351 -484 -316l-43 -78c26 -37 -24 -64 -38 -94c-15 -20 -21 -30 -36 -39c-16 0 -24 10 -24 31c0 25 29 89 86 192c-31 13 -47 31 -47 54c0 41 46 73 137 94l148 223c-85 -3 -191 -31 -320 -86c-5 0 -8 3 -8 8c10 35 56 109 75 140
c112 41 212 63 300 63c169 0 254 -64 254 -192zM258 277l-28 -47c117 -12 212 7 284 61c61 45 91 92 91 143c0 29 -17 49 -51 60c-33 11 -90 18 -171 18c2 -30 -7 -42 -28 -78l-82 -133l63 8c13 -2 9 -18 -4 -20z" horiz-adv-x="625" /><glyph glyph-name="S" unicode="S" d="M8 8c0 42 46 97 94 97c25 0 29 -8 11 -11c-54 -29 -24 -27 63 -28c163 -2 246 4 332 75c-23 44 -73 74 -153 86c-61 9 -164 42 -197 73c-10 9 -13 21 -13 32c7 127 56 187 177 222c99 28 241 45 338 18c51 -14 23 -95 -4 -111c-37 -22 -96 -35 -133 -63
c-16 -12 -18 -15 -27 -7c0 17 22 33 63 54c19 9 27 18 27 20c-93 11 -200 -5 -268 -32s-108 -51 -89 -92l9 -9c101 -25 217 -59 287 -112c31 -23 45 -52 45 -83c0 -159 -206 -196 -379 -196c-122 0 -183 22 -183 67z" horiz-adv-x="644" /><glyph glyph-name="W" unicode="W" d="M432 -31c-37 0 -88 47 -82 101c9 88 48 165 90 242c-81 -99 -150 -179 -207 -240s-99 -92 -126 -92c-38 0 -58 51 -58 98c0 89 176 257 238 334c21 27 31 46 31 57c0 15 -13 23 -39 23c-93 -2 -217 -99 -297 -133c-11 0 -16 5 -15 16c1 18 24 112 33 123
c29 39 75 58 127 88l4 -20c63 26 118 39 164 39c70 0 101 -25 98 -105c-3 -82 -26 -80 -69 -151c-41 -68 -184 -212 -185 -244c22 -25 62 18 84 40c90 86 195 204 263 296c48 64 68 89 118 110c11 1 32 -48 31 -59c-35 -77 -219 -303 -219 -402c0 -13 5 -20 16 -20
c26 0 65 30 117 90c51 59 105 144 160 254c-8 23 -12 36 -12 39c-6 6 66 93 71 86c15 0 23 -13 23 -39c0 -180 -147 -386 -272 -483c-43 -32 -72 -48 -87 -48z" horiz-adv-x="695" /><glyph glyph-name="a" unicode="a" d="M359 375c13 1 38 -31 36 -47c-1 -9 -9 -16 -28 -23c25 -60 28 -43 -4 -94c-17 -27 -43 -46 -43 -86c0 -23 9 -35 28 -35c26 0 64 21 113 62v-31c-83 -91 -143 -137 -180 -137c-23 0 -35 18 -35 55c0 25 10 62 31 109c-52 -57 -89 -96 -111 -117c-21 -21 -37 -31 -49 -31
c-32 -1 -78 87 -74 125c9 86 49 110 117 160c65 48 112 83 199 90zM340 297c-59 -29 -123 -61 -174 -96c-41 -29 -61 -58 -61 -88c0 -23 7 -35 20 -35s36 14 70 41c30 24 78 83 145 178z" horiz-adv-x="402" /><glyph glyph-name="b" unicode="b" d="M184 160c-10 44 80 138 113 137c10 0 15 -9 15 -27c0 -28 -14 -70 -42 -125c26 -20 46 -14 78 7v-31c-46 -27 -68 -37 -114 -27c-55 -71 -100 -106 -136 -106c-52 0 -78 42 -78 125c0 172 152 352 249 445c63 61 105 90 126 90c13 0 19 -10 19 -31
c-1 -86 -109 -234 -328 -445c-3 -47 3 -102 35 -102c15 0 38 18 70 55c-5 13 -8 25 -7 35zM102 227c74 73 212 234 253 343c0 5 -1 8 -3 8c-7 0 -26 -16 -55 -47c-43 -45 -179 -231 -195 -304z" horiz-adv-x="320" /><glyph glyph-name="c" unicode="c" d="M246 359c105 -8 -7 -153 -39 -160c-17 -3 -18 17 -12 28c1 5 -2 8 -7 7c-3 0 -18 -10 -45 -29c-46 -33 -69 -59 -69 -80c0 -42 22 -63 67 -63c42 0 100 30 175 90v-31c-40 -40 -128 -141 -199 -141c-78 0 -121 124 -92 201c6 16 27 39 59 71c71 71 125 110 162 107z" horiz-adv-x="289" /><glyph glyph-name="d" unicode="d" d="M66 4c-36 0 -70 89 -66 137c6 76 89 140 146 171c69 37 94 59 139 4c35 73 68 136 100 187c30 47 50 71 60 71c19 0 28 -10 28 -31c0 -13 -7 -32 -20 -57s-43 -74 -90 -150c-58 -95 -86 -170 -86 -223c0 -29 9 -43 28 -43s58 27 117 82v-35c-70 -91 -125 -137 -164 -137
c-60 0 -44 114 -31 172c-37 -41 -71 -76 -102 -105s-50 -43 -59 -43zM133 121c40 38 123 96 129 152c-41 -17 -147 -69 -174 -97c-19 -20 -26 -46 -26 -74c0 -15 17 -19 30 -14c4 1 18 11 41 33z" horiz-adv-x="414" /><glyph glyph-name="e" unicode="e" d="M137 62c77 8 99 38 164 90v-27c-75 -91 -143 -137 -203 -137c-63 0 -94 43 -94 129c0 88 71 163 134 203c41 26 76 39 104 39c37 0 55 -14 55 -43c0 -63 -70 -122 -211 -179c-3 -47 13 -79 51 -75zM90 168c63 22 121 72 137 125c0 8 -4 12 -12 12
c-42 0 -123 -82 -125 -137z" horiz-adv-x="289" /><glyph glyph-name="h" unicode="h" d="M312 328c19 -1 52 -38 36 -58c-45 -57 -73 -93 -84 -110c-12 -18 -18 -34 -18 -47c0 -15 8 -23 24 -23c14 0 48 21 101 62v-31c-81 -83 -136 -125 -164 -125c-26 0 -39 14 -39 43c0 47 31 114 94 199c-79 -43 -122 -118 -199 -208c-37 -43 -65 -3 -63 75
c2 135 99 218 158 311c38 60 83 112 125 162c38 45 63 67 76 67c12 -1 42 -6 39 -20c1 -34 -177 -269 -227 -328c-36 -42 -70 -83 -105 -121v-63c60 68 111 120 152 157c43 39 74 58 94 58z" horiz-adv-x="363" /><glyph glyph-name="i" unicode="i" d="M285 445c0 -27 -33 -76 -62 -74c-23 1 -35 12 -35 35c0 28 37 74 66 74c21 0 31 -12 31 -35zM20 121c0 72 97 215 160 215c45 0 28 -41 16 -63c-18 -34 -79 -89 -102 -121c-20 -29 -4 -70 39 -70c27 0 68 23 125 70v-35c-65 -81 -119 -121 -164 -121
c-49 -1 -74 72 -74 125z" horiz-adv-x="226" /><glyph glyph-name="l" unicode="l" d="M145 70c50 13 54 36 117 90v-39c-68 -89 -124 -133 -168 -133c-52 0 -74 69 -74 129c0 127 125 347 187 410c40 41 67 63 82 63c13 0 20 -14 20 -43c0 -43 -19 -99 -57 -166c-39 -69 -91 -136 -154 -201c-12 -49 1 -122 47 -110zM113 246c52 51 141 161 141 234
c0 8 -3 12 -8 12c-13 0 -35 -25 -65 -76s-53 -108 -68 -170z" horiz-adv-x="226" /><glyph glyph-name="m" unicode="m" d="M47 12c-44 12 -58 111 -37 159c18 42 87 151 127 141c23 0 35 -6 35 -19c0 -28 -97 -100 -106 -152c0 -5 4 -8 12 -8c6 0 21 9 43 31c66 66 111 112 139 135c27 22 50 33 68 33c21 0 31 -12 31 -35c0 -29 -43 -99 -129 -211l187 169c47 43 74 65 79 65
c17 2 36 -43 35 -58c-11 -40 -101 -94 -93 -141c7 -40 38 -35 68 -11l56 46v-35c-55 -53 -95 -89 -123 -106c-25 -16 -44 -23 -56 -23c-34 0 -42 41 -32 72c16 48 61 119 90 163c-72 -62 -137 -125 -191 -192c-21 -26 -79 -47 -74 8c6 64 41 85 74 160c-5 18 -16 14 -30 0
c-21 -20 -109 -113 -126 -141c-22 -33 -38 -50 -47 -50z" horiz-adv-x="550" /><glyph glyph-name="n" unicode="n" d="M340 340c13 -1 24 -54 23 -67c0 -6 -6 -16 -19 -31c-57 -63 -86 -108 -86 -133c0 -13 5 -19 15 -19c15 0 52 22 110 66v-35c-41 -41 -75 -73 -102 -94c-29 -23 -51 -35 -66 -35c-49 0 -46 71 -22 115c15 27 37 66 69 116c-48 -13 -138 -128 -195 -200
c-53 -29 -70 90 -52 143c5 12 17 33 37 62c36 54 68 81 96 81c33 0 41 -23 24 -39c-40 -40 -102 -120 -94 -129c3 -29 17 -14 31 4c64 77 115 128 152 154c39 27 66 41 79 41z" horiz-adv-x="363" /><glyph glyph-name="o" unicode="o" d="M242 129c20 -19 32 -3 74 27v-35c-31 -31 -66 -47 -105 -47c-41 -49 -79 -74 -113 -74c-58 0 -101 72 -98 137c5 75 69 144 123 179c36 23 67 36 96 36c41 0 53 -25 35 -51c21 -4 31 -18 31 -43c0 -39 -14 -82 -43 -129zM219 281c-51 -27 -136 -72 -151 -133
c-12 -49 -21 -82 30 -82c23 0 49 12 78 36c-21 70 2 100 43 179z" horiz-adv-x="312" /><glyph glyph-name="p" unicode="p" d="M422 121c-56 -42 -122 -125 -199 -125c-20 0 -49 8 -86 24c-25 -8 -31 -3 -59 11l-35 -82c-37 -99 -65 -148 -86 -148c-13 0 -19 14 -19 43c3 103 111 212 169 328c32 65 58 109 69 137c-73 -88 -129 -153 -168 -196v35c55 60 119 142 195 243c36 48 46 70 102 70
c14 0 19 -4 19 -12c0 -17 -15 -41 -47 -70s-71 -87 -117 -176c73 59 121 94 144 107c21 12 41 18 59 18c16 0 24 -6 24 -19c0 -35 -12 -69 -34 -102c-21 -32 -60 -75 -119 -129c13 -5 23 -8 32 -8c39 0 91 29 156 86v-35zM121 98c31 4 56 8 82 -8c65 65 98 112 98 140
c0 11 -7 16 -20 16c-40 0 -93 -49 -160 -148z" horiz-adv-x="402" /><glyph glyph-name="r" unicode="r" d="M297 121c-43 -42 -93 -117 -156 -117c-31 0 -47 23 -47 70c0 46 30 102 90 168c-26 -5 -59 -10 -98 -15c-18 -39 -47 -76 -86 -110v31c18 21 31 38 39 51c-21 8 -31 21 -31 39c-8 28 77 135 101 129c23 -6 10 -23 -4 -43c61 11 104 16 129 16c28 6 40 -46 26 -73
c-31 -36 -99 -117 -92 -150c0 -15 9 -23 27 -23c17 0 51 21 102 62v-35z" horiz-adv-x="289" /><glyph glyph-name="s" unicode="s" d="M4 152c57 62 117 124 172 188c5 49 36 70 74 51c5 -17 -1 -34 8 -59c44 -122 -1 -178 -113 -254c62 -14 97 19 171 78v-35c-89 -83 -156 -125 -199 -125c-45 0 -110 58 -111 93zM47 156c38 -14 45 -25 70 -58c73 31 75 90 59 187c-23 -26 -66 -69 -129 -129z" horiz-adv-x="308" /><glyph glyph-name="t" unicode="t" d="M180 297c-46 -78 -82 -106 -82 -192c0 -21 9 -31 27 -31c21 0 64 27 129 82v-35c-86 -94 -151 -141 -195 -141c-31 0 -47 20 -47 59c0 24 12 63 35 117c-20 -15 -36 -28 -47 -39v31c33 31 74 82 125 153c-51 4 -64 0 -90 -8c-16 23 48 101 72 105c20 3 49 8 88 8
c31 57 64 89 98 86c38 -3 24 -17 4 -43c-12 -16 -24 -30 -31 -43l50 -8c-25 -40 -48 -75 -70 -105z" horiz-adv-x="250" /><glyph glyph-name="v" unicode="v" d="M127 14c-69 -65 -127 32 -127 107c0 61 65 156 113 195c17 14 71 9 67 -11c-10 -53 -66 -119 -110 -153c-5 -23 -22 -86 12 -86c13 0 47 27 102 82c-12 42 88 180 117 180c15 0 24 -9 23 -27c-5 -65 -37 -110 -74 -156c24 -41 45 -23 82 7v-31c-39 -28 -74 -49 -117 -23
c-38 -40 -69 -66 -88 -84z" horiz-adv-x="320" /><glyph glyph-name="z" unicode="z" d="M141 348c23 1 14 -18 7 -28c25 -19 113 29 131 10c6 -12 21 -74 8 -92c-46 -34 -102 -64 -146 -105c31 -13 51 -38 58 -74l121 97v-35l-121 -98c-15 -90 -75 -171 -141 -222c-40 -31 -68 -47 -85 -47s-28 13 -28 39c0 65 67 139 200 223c-9 50 -14 45 -59 62
c-17 7 -27 13 -27 24c0 14 61 63 183 148c-46 -9 -89 -16 -144 -23c-28 -49 -57 -89 -86 -118v39c19 19 37 46 54 79c-18 3 -27 10 -27 19c-7 30 77 106 102 102zM137 -27c-50 -33 -127 -105 -149 -149c0 -8 4 -12 12 -12c57 12 123 94 137 161z" horiz-adv-x="300" /><glyph glyph-name="uni53F7" unicode="&#x53F7;" d="M414 -180c-35 -26 -35 19 -42 41c11 24 32 19 47 43c27 43 84 162 119 236c8 18 -3 59 26 51c32 5 79 44 121 21c57 -10 17 -93 8 -130c-13 -54 -55 -86 -70 -141c25 -28 83 -39 135 -37c34 19 6 115 30 153c29 -15 23 -63 51 -90c10 -6 23 -72 22 -83
c-18 -42 -65 -51 -128 -43c-74 10 -73 13 -137 42c-22 10 -36 38 -36 68c0 75 55 139 66 204c0 4 -2 6 -5 6c-1 8 -40 -39 -63 -35c-21 4 -15 -38 -26 -55c-27 -71 -51 -157 -86 -217c-9 -17 -22 -26 -32 -34zM473 441c9 3 40 -14 35 -29c-42 -38 -48 -137 -71 -202
c-44 -124 -50 -291 -154 -364c-16 -3 -54 -7 -74 -1c19 38 76 64 98 100c64 102 102 270 135 401c15 58 24 90 31 95zM498 348c1 14 5 44 25 44c15 1 56 18 57 26c15 16 9 91 42 85c18 5 46 9 41 -16c-21 -44 108 -11 39 -66c-24 -29 -99 -43 -95 -96c20 -11 91 -12 88 22
c6 14 -1 64 21 52c10 -10 1 -36 22 -37c11 -14 53 -31 27 -55c-13 -24 -58 -11 -87 -24c-43 -2 -132 -32 -125 35c4 39 -27 -9 -36 2c-13 4 -20 13 -19 28zM206 94c-24 0 -12 57 -12 58c-19 2 -48 -68 -76 -30c-12 33 22 41 41 57c25 22 50 31 66 52c10 23 11 42 15 65
c-45 22 -77 107 -41 158c13 39 36 82 52 117c4 6 16 25 29 20c8 -13 9 -62 32 -42c33 18 48 35 84 30c7 -11 29 -13 24 -32c-8 -32 -39 -40 -52 -73c-9 -21 -33 -58 -37 -85c10 -9 21 -28 2 -39c-17 -18 -51 -28 -73 -41c2 -10 44 -6 40 -26c3 -14 7 -8 19 -1
c18 11 57 32 86 17c-1 -22 -38 -19 -51 -29c-23 -18 -84 -45 -78 -76c14 4 52 24 76 8c9 -14 -1 -17 -11 -35c-25 -45 -25 -112 -39 -187c-8 -40 -56 -68 -77 -22c-3 7 -6 11 -11 11c-31 -9 -56 11 -47 46c14 27 72 -9 85 21c3 16 20 72 18 94c-19 4 -48 -35 -64 -36z
M306 468c-19 4 -12 -40 -15 -66c7 0 7 0 8 7c0 3 12 58 7 59zM617 731c5 20 41 19 49 2c2 -24 -24 -37 -34 -69c-8 -25 -23 -61 -22 -87c9 -7 10 -2 31 7c43 18 106 34 163 23c14 -3 54 -31 31 -49c-31 -24 -72 13 -114 -10c-37 -20 -2 14 -1 28c-47 13 -126 -46 -163 -70
c-15 -10 -80 -43 -110 -57c-10 -19 -39 -30 -40 3c3 13 5 37 23 35c23 6 102 41 127 57c6 8 6 13 9 37c-2 16 39 126 51 150zM790 748c60 3 41 -71 -8 -63c-32 5 -47 -27 -82 -17c-6 1 -5 5 2 12c17 18 41 36 55 53c9 11 13 14 33 15z" /><glyph glyph-name="uni5907" unicode="&#x5907;" d="M433 -103c-9 19 -35 44 -22 76c3 61 39 126 52 181c32 136 137 198 247 259c25 14 78 34 112 8c-17 -135 5 -280 8 -406c2 -49 -9 -75 -19 -112c-13 -11 -28 -44 -54 -30c-25 13 -65 -15 -90 3c-5 8 -73 10 -54 26c11 10 -6 23 -13 8c-15 -17 -47 -8 -47 16
c-9 32 -1 103 -1 135c-5 9 -8 1 -23 -9c-3 -2 -43 -42 -45 -45c-5 -45 21 -112 -32 -118c-8 -1 -14 2 -19 8zM760 375c-1 22 -70 -24 -80 -24c-13 -9 -40 -10 -38 -31c2 -12 -9 -29 -6 -43c25 -4 44 24 72 7c8 -3 31 -1 21 -14c-30 -18 -71 -31 -95 -53
c-7 -6 -15 -43 -6 -52c10 -2 34 33 49 22c18 -1 62 -7 29 -21c-22 -15 -66 -33 -85 -53c-9 -28 -9 -133 6 -155c23 2 34 -11 57 -8c65 8 83 -8 79 58c-5 85 1 243 -3 367zM578 236c4 1 21 66 -1 46c-20 -18 -70 -46 -72 -81c19 -8 58 29 73 35zM570 166
c7 35 -63 -26 -69 -18c-28 2 -10 -44 -18 -69c2 -16 14 -9 23 1c13 15 64 28 60 64c1 11 3 18 4 22zM153 229c-22 -15 -63 -14 -81 -32c-14 4 -13 25 -11 43c39 85 90 166 134 230c70 102 77 118 123 133c39 3 78 -40 43 -66c-65 -49 -99 -125 -140 -195
c47 -47 -17 -154 -17 -218c0 -59 1 -127 15 -170c22 -69 -67 -74 -84 -25c-10 30 -6 33 -1 86c11 120 43 174 59 272c-8 11 -34 -60 -40 -58zM665 675c0 29 29 45 57 45c14 -39 -27 -76 -29 -125c-7 -13 50 -12 42 -33c-10 -27 -64 -16 -62 -56c-8 -28 -5 -35 14 -25
c30 16 65 26 88 37c23 -4 43 -4 55 -12c1 -24 -42 -29 -70 -28c-80 -19 -119 -69 -189 -102c-13 -31 -47 -63 -63 -91c-57 -98 -95 -248 -203 -294c-19 3 -48 -29 -59 -8c7 10 47 26 49 37c57 57 101 176 154 278c-43 -12 -87 -58 -107 -82c-29 -14 -14 38 -6 51
c38 43 105 67 151 105c-1 2 12 73 -8 50c-12 -27 -57 41 -23 50c8 5 45 25 48 34c4 17 18 75 16 97c8 7 61 7 52 -13c-1 -14 -20 -33 -13 -50c22 2 48 26 59 28c37 19 18 20 45 89c3 8 3 14 2 18zM545 469c-3 -2 -15 -47 3 -45c14 -3 16 -15 33 -2c31 9 34 49 37 86
c-7 9 -68 -35 -73 -39z" /><glyph glyph-name="uni5C3C" unicode="&#x5C3C;" d="M904 27c-1 -48 -57 -60 -101 -43c-77 9 -154 27 -226 8c-176 -46 -109 149 -69 251c18 46 16 64 46 69c46 -13 9 -77 3 -116c7 -12 24 17 31 21c47 49 86 82 136 114c21 15 59 -10 51 -40c-45 -33 -119 -62 -161 -97c-22 -19 -65 -40 -73 -73c-7 -31 -15 -48 -8 -61
c63 12 145 15 257 13c9 6 11 12 16 28c25 73 52 142 84 208c25 15 6 -38 8 -55c-7 -58 -8 -175 6 -227zM447 319c-55 -170 -53 -393 -229 -444c-19 -6 -40 -19 -54 -31c-4 -2 -10 4 -8 9c50 95 105 163 138 282c28 101 48 195 93 299c10 23 35 50 49 66c-13 22 -7 39 18 54
c74 43 126 79 226 108c12 15 35 37 52 18c8 3 20 14 28 -2c11 -21 51 -23 28 -55c-25 -35 -53 -79 -80 -123c-18 -19 -33 -20 -56 -44c-47 -48 -116 -61 -164 -112c-21 -22 -26 -12 -41 -25zM612 515c-2 17 16 48 -10 36c-44 -20 -85 -49 -125 -75c5 -13 -9 -38 -5 -51
c45 15 72 57 120 66c18 3 18 5 20 24z" /><glyph glyph-name="uni62D4" unicode="&#x62D4;" d="M754 569c6 34 72 21 80 1c12 -9 31 -58 -3 -64c-35 -15 -71 30 -77 63zM196 258c-39 -18 -60 18 -56 54c42 28 74 58 126 98c39 30 38 119 58 170c11 28 14 39 0 59c2 27 89 22 77 -14c-1 -33 -36 -31 -50 -51c-9 -13 -28 -82 -36 -116s35 7 60 -1c10 -1 30 -10 32 -18
c-10 -25 -60 -11 -77 -29c-37 -21 -58 -83 -51 -142c5 -3 36 26 33 9c7 -5 -43 -42 -38 -65c-4 -52 14 -190 14 -257c0 -28 12 -46 5 -73c-9 -39 -71 -4 -83 8c-23 23 -25 35 -60 60c-21 15 -30 27 -30 33c12 41 32 19 84 4c22 -6 24 -13 34 -4c0 37 0 150 1 164
c1 16 -6 19 -12 7c-9 -18 -45 -62 -60 -80c1 -27 -34 -49 -62 -33c-13 16 -3 28 -5 53c23 30 116 117 142 142c7 14 11 62 16 83c-8 25 -41 -60 -62 -61zM341 -18c6 11 9 39 25 33c34 -4 44 29 62 51c41 52 45 155 61 231c10 46 -45 -11 -59 -12c-7 0 -37 -36 -54 -29
c-7 3 -14 25 -10 36c19 17 100 60 140 90c28 86 45 175 90 233c17 38 40 59 80 27c10 -27 -13 -53 -43 -47c-24 5 -22 -13 -33 -34c-17 -32 -34 -97 -41 -144c3 -3 7 -2 12 1c39 24 70 41 106 61c34 19 101 -10 43 -31c-47 -17 -126 -65 -171 -96c-5 -11 -14 -54 -10 -66
c46 10 89 68 144 71c25 1 31 -19 12 -29c-21 -12 -24 -62 -33 -94c-10 -33 -18 -105 -26 -151c13 -42 35 -94 58 -128c17 -25 71 -22 95 -31c45 -17 53 -33 79 -52c26 -18 -2 -35 -29 -33c-37 3 -97 16 -150 9c-43 20 -61 82 -80 119c-8 7 -28 -21 -37 -23
c-26 -14 -107 -37 -128 2c4 11 4 29 16 32c9 -2 21 -6 36 -6c35 0 91 66 72 93c-20 28 -26 45 -48 45c-17 -63 -51 -127 -123 -136c-15 -2 -58 -15 -56 8zM583 140c18 -27 23 23 26 34c6 32 18 77 25 107c-12 11 -14 1 -34 -7c-42 -17 -65 -31 -70 -40c1 2 -15 -61 5 -64
c14 -2 30 -13 48 -30z" /><glyph glyph-name="uni6C49" unicode="&#x6C49;" d="M105 30c7 47 2 121 19 151c6 -8 21 -106 27 -95c16 10 36 39 55 45c-8 -42 -37 -99 -8 -140c20 -28 1 -71 -41 -58c-28 3 -39 28 -52 45c-3 7 -3 25 0 52zM135 314c18 41 17 112 43 132c29 -20 65 -54 74 -93c-4 -23 -27 -45 -56 -28c-43 26 -43 -51 -66 -67
c-5 15 1 28 5 56zM266 569c-19 10 -59 -20 -47 24c-10 12 -17 27 -17 47c43 33 132 -7 115 -62c-5 -16 -32 -14 -51 -9zM518 632c15 41 13 104 67 83c24 -19 -9 -49 -9 -80c0 -25 -11 -32 0 -45c27 18 69 16 78 53c13 50 24 71 42 106c14 14 64 18 54 -14
c-7 -23 -55 -52 -53 -90c6 -17 78 41 95 18c23 -6 36 -25 12 -46c-28 -26 -44 7 -86 -9c-58 0 -43 -58 -69 -103c1 -12 25 -5 11 -22c-10 -12 -7 -16 14 -8s55 8 84 9c25 -11 32 -23 1 -40c-34 -19 -41 -70 -74 -90c-16 -18 -53 -31 -66 -48c20 2 78 -1 50 -26
c-21 -39 -77 -49 -110 -76c-1 -5 -19 -40 1 -32c46 17 94 75 152 51c14 -13 -16 -27 -24 -39c-43 -1 -112 -45 -145 -66c-6 -6 -3 -12 4 -14c69 -25 105 -86 152 -148c51 -17 151 -19 166 -59c-16 -25 -40 -41 -87 -41c-37 0 -65 12 -94 0c-25 -19 -54 15 -71 24
c-18 49 -52 108 -85 138c-12 2 -9 -26 -14 -38c-28 -58 -103 -111 -176 -111c-30 0 -44 16 -48 43c-20 53 62 -2 97 23c13 6 91 55 91 74c6 19 9 36 9 52c0 42 -9 14 -53 -8c-18 -9 -42 -49 -65 -43c-7 16 1 66 21 70c20 3 93 47 108 58c9 3 15 45 -3 27
c-28 -19 -31 -33 -59 -29c-11 11 5 45 6 56c4 31 68 41 84 64c2 4 -3 10 -6 10c-34 -12 -49 -44 -85 -53c-13 1 -7 17 -14 26c-13 17 -12 66 1 83c16 24 49 44 72 63c3 31 -4 78 -3 114c-8 5 -9 -1 -18 -9c-24 -22 -51 -40 -81 -51c-12 0 -18 14 -21 25c-1 5 4 10 17 14
c18 6 83 51 110 73c8 26 5 38 20 81zM620 532c3 10 20 46 6 49c-16 -11 -61 -14 -57 -38c2 -15 -18 -91 19 -61c20 16 24 19 32 50zM682 440c-39 -1 -68 -41 -92 -61c-7 -15 -12 -45 15 -23c40 18 51 27 74 71c3 7 5 11 3 13zM554 418c10 24 -47 -19 -13 -8c6 2 10 5 13 8z
M526 312c15 3 19 42 14 52c-24 -7 -52 -27 -64 -45c0 -20 13 -38 32 -18c9 5 15 9 18 11z" /><glyph glyph-name="uni6E58" unicode="&#x6E58;" d="M146 -2c-2 109 33 176 29 291c15 32 5 102 41 103c37 -20 51 -83 4 -104c-64 -29 -13 -121 -8 -190c3 -26 12 -36 22 -14c4 8 5 11 11 8c-3 -29 -21 -74 -11 -105c13 -40 -16 -76 -51 -47c-22 19 -27 28 -37 58zM212 428c-7 34 -4 89 36 81c26 -5 72 -40 53 -79
c-8 -17 -43 -22 -60 -8c-9 8 -21 1 -29 6zM443 590c12 44 -2 62 52 61c33 -10 5 -50 -7 -59c-18 -26 -49 -193 -32 -206c33 30 52 33 58 64c4 22 32 2 43 -3c27 -12 14 -23 1 -49c-23 -43 -62 -75 -108 -114c-9 -20 -8 -100 -8 -163c0 -18 68 13 74 12c36 21 68 137 82 190
c15 13 51 43 66 22c2 -25 -14 -50 -4 -65c32 3 82 5 80 -33c-2 -30 -45 -9 -44 -46c21 -16 81 -54 40 -89c-16 -7 -23 -18 -6 -24c21 4 45 -37 59 -13c-9 111 -18 235 -4 363c-2 5 -7 7 -13 4c-20 -10 -74 -45 -102 -64c-9 1 -33 -10 -41 -5c-7 8 -6 19 6 32
c38 41 117 107 198 107c20 0 21 -10 16 -35c-4 -18 -16 -190 -4 -225c4 -46 14 -96 22 -164c-5 -52 -29 -81 -89 -81c-69 0 -112 58 -91 131c9 29 -24 47 -18 80c4 20 -3 37 -13 30c-4 -77 -9 -174 -10 -251c-11 -19 -22 -67 -50 -43c-44 21 -35 72 -26 130c1 4 -4 7 -8 6
c-10 -10 -105 3 -116 -14c-2 -48 22 -91 27 -138c3 -26 -18 -52 -40 -31c-16 15 -70 14 -96 25c-27 -2 -44 11 -15 24c18 14 64 17 90 26c3 17 -7 61 -11 88c-7 5 -34 -6 -28 14c9 12 39 12 29 43c0 46 -9 24 -29 -9c-15 -25 -61 -101 -91 -121c-15 -10 -21 13 -12 25
c15 20 44 51 63 86c25 46 45 78 58 96c12 16 18 38 3 49c-35 -11 -77 -54 -106 -14c-16 22 50 43 55 56c21 28 67 28 67 78c0 76 14 147 33 217z" /><glyph glyph-name="uni91CC" unicode="&#x91CC;" d="M457 111c58 11 121 76 189 71c36 -37 -65 -39 -92 -59c-10 -7 -57 -13 -45 -27c72 -36 146 -124 199 -187c51 -21 127 -29 179 -46c13 -4 42 -35 13 -35c-53 0 -107 7 -168 16c-9 -7 -37 -29 -54 -20c-64 1 -106 126 -128 140c-27 27 -65 94 -119 96c-15 12 -12 15 6 32
c10 10 17 17 20 19zM177 432c12 24 31 75 60 49c155 77 300 143 482 180c52 10 76 -6 85 -44c-11 -35 -65 -4 -93 -4c-48 0 -171 -37 -217 -59c-7 -4 -4 -9 -4 -18c2 -8 10 0 18 3c35 12 112 47 154 20c10 -28 -35 -26 -40 -52c-20 -33 -7 -117 -62 -117
c-18 0 -58 -15 -59 -38c-4 -14 -7 -14 2 -19c-2 -5 65 34 83 16c2 -16 -8 -16 -27 -17c-23 -9 -87 -15 -71 -58c58 4 88 42 134 12c32 -21 -32 -30 -46 -33c-33 -6 -74 -24 -101 -38c-42 -45 -76 -105 -113 -153c13 -31 5 -78 -3 -118c4 -11 55 25 63 24c16 -2 36 54 51 47
c9 -10 -7 -33 11 -42c15 -30 -71 -49 -97 -70c-33 -11 -58 -44 -87 -54c-13 2 -8 27 -5 37c7 33 42 89 45 123c2 15 -4 17 -14 6c-39 -45 -73 -111 -120 -141c-30 -19 -38 13 -30 35c43 10 44 19 68 48c60 73 124 150 174 228c-20 17 -77 -51 -97 -24c3 56 77 72 115 91
c8 4 18 24 10 32c-21 7 -38 -30 -61 -23c-2 1 -3 3 -3 5c13 18 33 43 51 56c10 -2 -21 -30 7 -18c19 1 23 31 21 48c-25 6 -26 -22 -45 -32c-52 -46 -89 28 -60 74c4 21 10 20 27 44c10 14 76 84 94 103c-2 11 -36 -12 -47 -15c-63 -30 -159 -65 -219 -100
c-19 -11 -29 -8 -34 6zM569 494c13 32 -60 11 -24 -7c8 1 23 2 24 7zM490 472c-3 20 -47 -2 -26 -17c7 3 25 13 26 17zM554 442c-8 11 -47 -17 -23 -24c13 -3 28 16 23 24zM482 410c10 29 -44 20 -41 -7c-17 -37 44 -10 41 7zM463 682c21 33 64 48 98 14s-11 -80 -49 -60
c-24 13 -52 10 -49 46z" /><glyph glyph-name="uni963F" unicode="&#x963F;" d="M491 208c-80 0 -87 57 -61 119c4 8 48 43 53 63c25 10 106 60 139 32c3 -38 -26 -69 -30 -109c-3 -38 -73 -105 -101 -105zM552 373c-12 -6 -58 -14 -68 -28c-2 -20 6 -28 9 -43c5 -27 35 -6 46 3c8 6 27 41 20 64c-3 3 -5 4 -7 4zM608 -85c-58 35 -110 58 -102 147
c19 14 50 -22 72 -26c18 -3 59 -29 75 -16c-3 185 33 293 33 447c0 26 -37 37 -4 59c22 23 105 18 68 -34c-24 -104 -52 -241 -38 -369c3 -24 10 -122 9 -155c-19 -12 -18 -47 -50 -43c-30 4 -35 -27 -63 -10zM460 511c98 53 220 110 356 133c26 4 50 -11 68 -19
c17 -23 -10 -57 -37 -51c-10 7 -23 -6 -29 -7c-41 19 -76 -6 -118 -6c-63 -21 -194 -80 -244 -121c-25 -21 -31 21 -37 41c-8 28 22 19 41 30zM241 519c-15 -16 -32 5 -35 16c31 36 93 99 136 126c9 0 64 12 46 -17c-26 -43 -26 -47 -5 -92c34 -32 -9 -110 -22 -138
c-18 -17 -62 -39 -89 -14c-29 26 -30 18 -36 -35c-14 -115 -9 -145 -14 -276c-6 -25 18 -118 13 -153c-28 -22 -81 -8 -87 28c-15 32 -19 43 -13 90c17 131 47 293 82 398c12 37 64 11 79 -4c33 -17 53 41 36 74c-13 24 -14 46 -22 65c-29 -27 -43 -56 -69 -68z" /></font>
</defs>
</svg>
